<mxfile host="app.diagrams.net" modified="2021-01-31T08:16:35.677Z" agent="5.0 (X11)" etag="R2WgaP248YBX-eJEfVia" version="14.2.9" type="github">
  <diagram id="N4V3Brw-EeQCrQ-C7NFo" name="Page-1">
    <mxGraphModel dx="1350" dy="804" grid="1" gridSize="10" guides="1" tooltips="1" connect="1" arrows="1" fold="1" page="1" pageScale="1" pageWidth="827" pageHeight="1169" background="#DAD2D8" math="0" shadow="0">
      <root>
        <mxCell id="0" />
        <mxCell id="1" parent="0" />
        <mxCell id="GdseNCPxrkvFLqn0IAgV-6" style="edgeStyle=orthogonalEdgeStyle;curved=0;rounded=1;sketch=0;orthogonalLoop=1;jettySize=auto;html=1;entryX=0.5;entryY=0;entryDx=0;entryDy=0;strokeColor=#A8201A;fillColor=#FAE5C7;fontColor=#143642;" parent="1" source="GdseNCPxrkvFLqn0IAgV-14" target="GdseNCPxrkvFLqn0IAgV-2" edge="1">
          <mxGeometry relative="1" as="geometry" />
        </mxCell>
        <mxCell id="GdseNCPxrkvFLqn0IAgV-42" style="edgeStyle=orthogonalEdgeStyle;curved=0;rounded=1;sketch=0;orthogonalLoop=1;jettySize=auto;html=1;entryX=0.5;entryY=0;entryDx=0;entryDy=0;strokeColor=#A8201A;fillColor=#FAE5C7;fontColor=#143642;" parent="1" source="GdseNCPxrkvFLqn0IAgV-1" target="GdseNCPxrkvFLqn0IAgV-41" edge="1">
          <mxGeometry relative="1" as="geometry" />
        </mxCell>
        <mxCell id="GdseNCPxrkvFLqn0IAgV-46" style="edgeStyle=orthogonalEdgeStyle;curved=0;rounded=1;sketch=0;orthogonalLoop=1;jettySize=auto;html=1;exitX=1;exitY=0.25;exitDx=0;exitDy=0;entryX=0.5;entryY=0;entryDx=0;entryDy=0;strokeColor=#A8201A;fillColor=#FAE5C7;fontColor=#143642;" parent="1" source="GdseNCPxrkvFLqn0IAgV-1" target="GdseNCPxrkvFLqn0IAgV-45" edge="1">
          <mxGeometry relative="1" as="geometry" />
        </mxCell>
        <mxCell id="GdseNCPxrkvFLqn0IAgV-1" value="IDLE" style="rounded=0;whiteSpace=wrap;html=1;sketch=0;strokeColor=#0F8B8D;fillColor=#FAE5C7;fontColor=#143642;" parent="1" vertex="1">
          <mxGeometry x="220" y="110" width="120" height="60" as="geometry" />
        </mxCell>
        <mxCell id="GdseNCPxrkvFLqn0IAgV-8" style="edgeStyle=orthogonalEdgeStyle;curved=0;rounded=1;sketch=0;orthogonalLoop=1;jettySize=auto;html=1;entryX=0.5;entryY=0;entryDx=0;entryDy=0;strokeColor=#A8201A;fillColor=#FAE5C7;fontColor=#143642;" parent="1" source="GdseNCPxrkvFLqn0IAgV-2" target="GdseNCPxrkvFLqn0IAgV-7" edge="1">
          <mxGeometry relative="1" as="geometry" />
        </mxCell>
        <mxCell id="GdseNCPxrkvFLqn0IAgV-18" style="edgeStyle=orthogonalEdgeStyle;curved=0;rounded=1;sketch=0;orthogonalLoop=1;jettySize=auto;html=1;entryX=1;entryY=0.5;entryDx=0;entryDy=0;strokeColor=#A8201A;fillColor=#FAE5C7;fontColor=#143642;exitX=1;exitY=0.5;exitDx=0;exitDy=0;" parent="1" source="GdseNCPxrkvFLqn0IAgV-2" target="GdseNCPxrkvFLqn0IAgV-9" edge="1">
          <mxGeometry relative="1" as="geometry" />
        </mxCell>
        <mxCell id="GdseNCPxrkvFLqn0IAgV-37" style="edgeStyle=orthogonalEdgeStyle;curved=0;rounded=1;sketch=0;orthogonalLoop=1;jettySize=auto;html=1;exitX=0.25;exitY=0;exitDx=0;exitDy=0;strokeColor=#A8201A;fillColor=#FAE5C7;fontColor=#143642;entryX=0;entryY=0.25;entryDx=0;entryDy=0;" parent="1" source="GdseNCPxrkvFLqn0IAgV-2" target="GdseNCPxrkvFLqn0IAgV-2" edge="1">
          <mxGeometry relative="1" as="geometry">
            <mxPoint x="200" y="220" as="targetPoint" />
            <Array as="points">
              <mxPoint x="250" y="200" />
              <mxPoint x="200" y="200" />
              <mxPoint x="200" y="225" />
            </Array>
          </mxGeometry>
        </mxCell>
        <mxCell id="GdseNCPxrkvFLqn0IAgV-2" value="RDSR*" style="whiteSpace=wrap;html=1;rounded=0;sketch=0;strokeColor=#0F8B8D;fillColor=#FAE5C7;fontColor=#143642;" parent="1" vertex="1">
          <mxGeometry x="220" y="210" width="120" height="60" as="geometry" />
        </mxCell>
        <mxCell id="GdseNCPxrkvFLqn0IAgV-5" value="wip==0 &amp;amp;&amp;amp; wel==0&amp;amp;&amp;amp;cnt_rdsr==0" style="text;html=1;align=center;verticalAlign=middle;resizable=0;points=[];autosize=1;fontColor=#143642;" parent="1" vertex="1">
          <mxGeometry x="50" y="270" width="200" height="20" as="geometry" />
        </mxCell>
        <mxCell id="GdseNCPxrkvFLqn0IAgV-10" style="edgeStyle=orthogonalEdgeStyle;curved=0;rounded=1;sketch=0;orthogonalLoop=1;jettySize=auto;html=1;entryX=0.567;entryY=0;entryDx=0;entryDy=0;entryPerimeter=0;strokeColor=#A8201A;fillColor=#FAE5C7;fontColor=#143642;" parent="1" source="GdseNCPxrkvFLqn0IAgV-7" target="GdseNCPxrkvFLqn0IAgV-9" edge="1">
          <mxGeometry relative="1" as="geometry" />
        </mxCell>
        <mxCell id="GdseNCPxrkvFLqn0IAgV-7" value="WERN*" style="whiteSpace=wrap;html=1;rounded=0;sketch=0;strokeColor=#0F8B8D;fillColor=#FAE5C7;fontColor=#143642;" parent="1" vertex="1">
          <mxGeometry x="99" y="320" width="120" height="60" as="geometry" />
        </mxCell>
        <mxCell id="GdseNCPxrkvFLqn0IAgV-17" style="edgeStyle=orthogonalEdgeStyle;curved=0;rounded=1;sketch=0;orthogonalLoop=1;jettySize=auto;html=1;entryX=0.5;entryY=0;entryDx=0;entryDy=0;strokeColor=#A8201A;fillColor=#FAE5C7;fontColor=#143642;" parent="1" source="GdseNCPxrkvFLqn0IAgV-9" target="GdseNCPxrkvFLqn0IAgV-16" edge="1">
          <mxGeometry relative="1" as="geometry" />
        </mxCell>
        <mxCell id="GdseNCPxrkvFLqn0IAgV-9" value="SE" style="whiteSpace=wrap;html=1;rounded=0;sketch=0;strokeColor=#0F8B8D;fillColor=#FAE5C7;fontColor=#143642;" parent="1" vertex="1">
          <mxGeometry x="220" y="400" width="120" height="60" as="geometry" />
        </mxCell>
        <mxCell id="GdseNCPxrkvFLqn0IAgV-12" value="wip==0 &amp;amp;&amp;amp; wel==1&amp;amp;&amp;amp;cnt_rdsr==0" style="text;html=1;align=center;verticalAlign=middle;resizable=0;points=[];autosize=1;fontColor=#143642;" parent="1" vertex="1">
          <mxGeometry x="260" y="320" width="200" height="20" as="geometry" />
        </mxCell>
        <mxCell id="GdseNCPxrkvFLqn0IAgV-14" value="cmd==页写 &amp;amp;&amp;amp; req==1" style="text;html=1;align=center;verticalAlign=middle;resizable=0;points=[];autosize=1;fontColor=#143642;" parent="1" vertex="1">
          <mxGeometry x="210" y="180" width="140" height="20" as="geometry" />
        </mxCell>
        <mxCell id="GdseNCPxrkvFLqn0IAgV-15" style="edgeStyle=orthogonalEdgeStyle;curved=0;rounded=1;sketch=0;orthogonalLoop=1;jettySize=auto;html=1;entryX=0.5;entryY=0;entryDx=0;entryDy=0;strokeColor=#A8201A;fillColor=#FAE5C7;fontColor=#143642;" parent="1" source="GdseNCPxrkvFLqn0IAgV-1" target="GdseNCPxrkvFLqn0IAgV-14" edge="1">
          <mxGeometry relative="1" as="geometry">
            <mxPoint x="280" y="170" as="sourcePoint" />
            <mxPoint x="280" y="210" as="targetPoint" />
          </mxGeometry>
        </mxCell>
        <mxCell id="GdseNCPxrkvFLqn0IAgV-25" style="edgeStyle=orthogonalEdgeStyle;curved=0;rounded=1;sketch=0;orthogonalLoop=1;jettySize=auto;html=1;entryX=0.5;entryY=0;entryDx=0;entryDy=0;strokeColor=#A8201A;fillColor=#FAE5C7;fontColor=#143642;" parent="1" source="GdseNCPxrkvFLqn0IAgV-16" target="GdseNCPxrkvFLqn0IAgV-19" edge="1">
          <mxGeometry relative="1" as="geometry" />
        </mxCell>
        <mxCell id="GdseNCPxrkvFLqn0IAgV-28" style="edgeStyle=orthogonalEdgeStyle;curved=0;rounded=1;sketch=0;orthogonalLoop=1;jettySize=auto;html=1;entryX=0.992;entryY=0.617;entryDx=0;entryDy=0;entryPerimeter=0;strokeColor=#A8201A;fillColor=#FAE5C7;fontColor=#143642;exitX=1;exitY=0.5;exitDx=0;exitDy=0;" parent="1" source="GdseNCPxrkvFLqn0IAgV-16" target="GdseNCPxrkvFLqn0IAgV-26" edge="1">
          <mxGeometry relative="1" as="geometry" />
        </mxCell>
        <mxCell id="GdseNCPxrkvFLqn0IAgV-39" style="edgeStyle=orthogonalEdgeStyle;curved=0;rounded=1;sketch=0;orthogonalLoop=1;jettySize=auto;html=1;exitX=0.25;exitY=0;exitDx=0;exitDy=0;strokeColor=#A8201A;fillColor=#FAE5C7;fontColor=#143642;entryX=0;entryY=0.25;entryDx=0;entryDy=0;" parent="1" source="GdseNCPxrkvFLqn0IAgV-16" target="GdseNCPxrkvFLqn0IAgV-16" edge="1">
          <mxGeometry relative="1" as="geometry">
            <mxPoint x="200" y="500" as="targetPoint" />
            <Array as="points">
              <mxPoint x="250" y="480" />
              <mxPoint x="200" y="480" />
              <mxPoint x="200" y="505" />
            </Array>
          </mxGeometry>
        </mxCell>
        <mxCell id="GdseNCPxrkvFLqn0IAgV-16" value="RDSR*" style="whiteSpace=wrap;html=1;rounded=0;sketch=0;strokeColor=#0F8B8D;fillColor=#FAE5C7;fontColor=#143642;" parent="1" vertex="1">
          <mxGeometry x="220" y="490" width="120" height="60" as="geometry" />
        </mxCell>
        <mxCell id="GdseNCPxrkvFLqn0IAgV-27" style="edgeStyle=orthogonalEdgeStyle;curved=0;rounded=1;sketch=0;orthogonalLoop=1;jettySize=auto;html=1;entryX=0.5;entryY=0;entryDx=0;entryDy=0;strokeColor=#A8201A;fillColor=#FAE5C7;fontColor=#143642;" parent="1" source="GdseNCPxrkvFLqn0IAgV-19" target="GdseNCPxrkvFLqn0IAgV-26" edge="1">
          <mxGeometry relative="1" as="geometry" />
        </mxCell>
        <mxCell id="GdseNCPxrkvFLqn0IAgV-19" value="WERN*" style="whiteSpace=wrap;html=1;rounded=0;sketch=0;strokeColor=#0F8B8D;fillColor=#FAE5C7;fontColor=#143642;" parent="1" vertex="1">
          <mxGeometry x="99" y="610" width="120" height="60" as="geometry" />
        </mxCell>
        <mxCell id="GdseNCPxrkvFLqn0IAgV-21" value="wip==0 &amp;amp;&amp;amp; wel==0 &amp;amp;&amp;amp; cnt_rdsr==1" style="text;html=1;align=center;verticalAlign=middle;resizable=0;points=[];autosize=1;fontColor=#143642;" parent="1" vertex="1">
          <mxGeometry x="59" y="550" width="200" height="20" as="geometry" />
        </mxCell>
        <mxCell id="GdseNCPxrkvFLqn0IAgV-31" style="edgeStyle=orthogonalEdgeStyle;curved=0;rounded=1;sketch=0;orthogonalLoop=1;jettySize=auto;html=1;entryX=0.5;entryY=0;entryDx=0;entryDy=0;strokeColor=#A8201A;fillColor=#FAE5C7;fontColor=#143642;" parent="1" source="GdseNCPxrkvFLqn0IAgV-26" target="GdseNCPxrkvFLqn0IAgV-30" edge="1">
          <mxGeometry relative="1" as="geometry" />
        </mxCell>
        <mxCell id="GdseNCPxrkvFLqn0IAgV-26" value="PP" style="whiteSpace=wrap;html=1;rounded=0;sketch=0;strokeColor=#0F8B8D;fillColor=#FAE5C7;fontColor=#143642;" parent="1" vertex="1">
          <mxGeometry x="220" y="680" width="120" height="60" as="geometry" />
        </mxCell>
        <mxCell id="GdseNCPxrkvFLqn0IAgV-29" value="wip==0 &amp;amp;&amp;amp; wel==1&amp;amp;&amp;amp;cnt_rdsr ==1" style="text;html=1;align=center;verticalAlign=middle;resizable=0;points=[];autosize=1;fontColor=#143642;" parent="1" vertex="1">
          <mxGeometry x="254" y="610" width="200" height="20" as="geometry" />
        </mxCell>
        <mxCell id="GdseNCPxrkvFLqn0IAgV-33" style="edgeStyle=orthogonalEdgeStyle;curved=0;rounded=1;sketch=0;orthogonalLoop=1;jettySize=auto;html=1;entryX=0.5;entryY=0;entryDx=0;entryDy=0;strokeColor=#A8201A;fillColor=#FAE5C7;fontColor=#143642;" parent="1" source="GdseNCPxrkvFLqn0IAgV-30" target="GdseNCPxrkvFLqn0IAgV-32" edge="1">
          <mxGeometry relative="1" as="geometry" />
        </mxCell>
        <mxCell id="GdseNCPxrkvFLqn0IAgV-35" style="edgeStyle=orthogonalEdgeStyle;curved=0;rounded=1;sketch=0;orthogonalLoop=1;jettySize=auto;html=1;strokeColor=#A8201A;fillColor=#FAE5C7;fontColor=#143642;exitX=0.25;exitY=0;exitDx=0;exitDy=0;entryX=0;entryY=0.25;entryDx=0;entryDy=0;" parent="1" source="GdseNCPxrkvFLqn0IAgV-30" target="GdseNCPxrkvFLqn0IAgV-30" edge="1">
          <mxGeometry relative="1" as="geometry">
            <mxPoint x="210" y="790" as="targetPoint" />
            <Array as="points">
              <mxPoint x="250" y="760" />
              <mxPoint x="200" y="760" />
              <mxPoint x="200" y="795" />
            </Array>
          </mxGeometry>
        </mxCell>
        <mxCell id="GdseNCPxrkvFLqn0IAgV-30" value="RDSR*" style="whiteSpace=wrap;html=1;rounded=0;sketch=0;strokeColor=#0F8B8D;fillColor=#FAE5C7;fontColor=#143642;" parent="1" vertex="1">
          <mxGeometry x="220" y="780" width="120" height="60" as="geometry" />
        </mxCell>
        <mxCell id="GdseNCPxrkvFLqn0IAgV-49" style="edgeStyle=orthogonalEdgeStyle;curved=0;rounded=1;sketch=0;orthogonalLoop=1;jettySize=auto;html=1;entryX=0;entryY=0.5;entryDx=0;entryDy=0;strokeColor=#A8201A;fillColor=#FAE5C7;fontColor=#143642;" parent="1" source="GdseNCPxrkvFLqn0IAgV-32" target="GdseNCPxrkvFLqn0IAgV-1" edge="1">
          <mxGeometry relative="1" as="geometry">
            <Array as="points">
              <mxPoint x="70" y="910" />
              <mxPoint x="70" y="140" />
            </Array>
          </mxGeometry>
        </mxCell>
        <mxCell id="GdseNCPxrkvFLqn0IAgV-32" value="DONE" style="whiteSpace=wrap;html=1;rounded=0;sketch=0;strokeColor=#0F8B8D;fillColor=#FAE5C7;fontColor=#143642;" parent="1" vertex="1">
          <mxGeometry x="220" y="880" width="120" height="60" as="geometry" />
        </mxCell>
        <mxCell id="GdseNCPxrkvFLqn0IAgV-34" value="wip == 0 &amp;amp;&amp;amp; cnt_rdsr==2" style="text;html=1;align=center;verticalAlign=middle;resizable=0;points=[];autosize=1;fontColor=#143642;" parent="1" vertex="1">
          <mxGeometry x="205" y="850" width="150" height="20" as="geometry" />
        </mxCell>
        <mxCell id="GdseNCPxrkvFLqn0IAgV-36" value="wip == 1" style="text;html=1;align=center;verticalAlign=middle;resizable=0;points=[];autosize=1;fontColor=#143642;" parent="1" vertex="1">
          <mxGeometry x="160" y="760" width="60" height="20" as="geometry" />
        </mxCell>
        <mxCell id="GdseNCPxrkvFLqn0IAgV-38" value="wip == 1" style="text;html=1;align=center;verticalAlign=middle;resizable=0;points=[];autosize=1;fontColor=#143642;" parent="1" vertex="1">
          <mxGeometry x="170" y="190" width="60" height="20" as="geometry" />
        </mxCell>
        <mxCell id="GdseNCPxrkvFLqn0IAgV-40" value="wip == 1" style="text;html=1;align=center;verticalAlign=middle;resizable=0;points=[];autosize=1;fontColor=#143642;" parent="1" vertex="1">
          <mxGeometry x="160" y="480" width="60" height="20" as="geometry" />
        </mxCell>
        <mxCell id="GdseNCPxrkvFLqn0IAgV-44" style="edgeStyle=orthogonalEdgeStyle;curved=0;rounded=1;sketch=0;orthogonalLoop=1;jettySize=auto;html=1;entryX=1;entryY=0.5;entryDx=0;entryDy=0;strokeColor=#A8201A;fillColor=#FAE5C7;fontColor=#143642;" parent="1" source="GdseNCPxrkvFLqn0IAgV-41" target="GdseNCPxrkvFLqn0IAgV-32" edge="1">
          <mxGeometry relative="1" as="geometry">
            <Array as="points">
              <mxPoint x="480" y="910" />
            </Array>
          </mxGeometry>
        </mxCell>
        <mxCell id="GdseNCPxrkvFLqn0IAgV-41" value="RDID" style="whiteSpace=wrap;html=1;rounded=0;sketch=0;strokeColor=#0F8B8D;fillColor=#FAE5C7;fontColor=#143642;" parent="1" vertex="1">
          <mxGeometry x="420" y="210" width="120" height="60" as="geometry" />
        </mxCell>
        <mxCell id="GdseNCPxrkvFLqn0IAgV-43" value="req==1 &amp;amp;&amp;amp; cmd==读id" style="text;html=1;align=center;verticalAlign=middle;resizable=0;points=[];autosize=1;fontColor=#143642;" parent="1" vertex="1">
          <mxGeometry x="410" y="170" width="130" height="20" as="geometry" />
        </mxCell>
        <mxCell id="GdseNCPxrkvFLqn0IAgV-48" style="edgeStyle=orthogonalEdgeStyle;curved=0;rounded=1;sketch=0;orthogonalLoop=1;jettySize=auto;html=1;entryX=1;entryY=0.75;entryDx=0;entryDy=0;strokeColor=#A8201A;fillColor=#FAE5C7;fontColor=#143642;" parent="1" source="GdseNCPxrkvFLqn0IAgV-45" target="GdseNCPxrkvFLqn0IAgV-32" edge="1">
          <mxGeometry relative="1" as="geometry">
            <Array as="points">
              <mxPoint x="610" y="925" />
            </Array>
          </mxGeometry>
        </mxCell>
        <mxCell id="GdseNCPxrkvFLqn0IAgV-45" value="READ" style="whiteSpace=wrap;html=1;rounded=0;sketch=0;strokeColor=#0F8B8D;fillColor=#FAE5C7;fontColor=#143642;" parent="1" vertex="1">
          <mxGeometry x="550" y="380" width="120" height="60" as="geometry" />
        </mxCell>
        <mxCell id="GdseNCPxrkvFLqn0IAgV-47" value="req==1 &amp;amp;&amp;amp; cmd==读数据" style="text;html=1;align=center;verticalAlign=middle;resizable=0;points=[];autosize=1;fontColor=#143642;" parent="1" vertex="1">
          <mxGeometry x="520" y="290" width="150" height="20" as="geometry" />
        </mxCell>
        <mxCell id="mcKSmmN7DRonyQvV1nqX-11" value="cnt_rdsr==1" style="text;html=1;align=center;verticalAlign=middle;resizable=0;points=[];autosize=1;fontColor=#143642;" vertex="1" parent="1">
          <mxGeometry x="240" y="650" width="80" height="20" as="geometry" />
        </mxCell>
        <mxCell id="mcKSmmN7DRonyQvV1nqX-12" value="cnt_rdsr ==0" style="text;html=1;align=center;verticalAlign=middle;resizable=0;points=[];autosize=1;fontColor=#143642;" vertex="1" parent="1">
          <mxGeometry x="250" y="370" width="80" height="20" as="geometry" />
        </mxCell>
      </root>
    </mxGraphModel>
  </diagram>
</mxfile>
